<?xml version="1.0" encoding="UTF-8"?>
<!DOCTYPE svg PUBLIC "-//W3C//DTD SVG 1.1//EN" "http://www.w3.org/Graphics/SVG/1.1/DTD/svg11.dtd">
<!-- Creator: CorelDRAW X8 -->
<svg xmlns="http://www.w3.org/2000/svg" xml:space="preserve" width="32px" height="32px" version="1.1" style="shape-rendering:geometricPrecision; text-rendering:geometricPrecision; image-rendering:optimizeQuality; fill-rule:evenodd; clip-rule:evenodd"
viewBox="0 0 32 32"
 xmlns:xlink="http://www.w3.org/1999/xlink">
 <defs>
  <style type="text/css">
   <![CDATA[
    .fil2 {fill:#472417}
    .fil1 {fill:#EFECE7}
    .fil0 {fill:white}
   ]]>
  </style>
 </defs>
 <g id="Layer_x0020_1">
  <metadata id="CorelCorpID_0Corel-Layer"/>
  <g id="_1664488049248">
   <rect class="fil0" x="6" y="7" width="3.76322" height="3.76322"/>
   <circle class="fil1" cx="16" cy="16" r="16"/>
   <path class="fil2" d="M13 18c1,-1 1,-1 1,-2 1,-1 1,-1 1,-2 0,-2 -1,-3 -1,-4 -1,0 -3,-1 -4,-1l-4 0 0 3 4 0 0 0 0 0c1,0 1,0 2,0 0,1 0,1 0,2 0,0 0,1 0,1 -1,1 -1,1 -2,1l0 0 0 2 3 5 3 0 -3 -5 0 0z"/>
   <polygon class="fil2" points="26,9 26,12 20,12 20,15 25,15 25,17 20,17 20,20 26,20 26,23 17,23 17,9 26,9 "/>
   <polygon class="fil2" points="9,16 9,18 6,18 6,16 "/>
  </g>
 </g>
</svg>
