<?xml version="1.0" encoding="UTF-8"?>
<!DOCTYPE svg PUBLIC "-//W3C//DTD SVG 1.1//EN" "http://www.w3.org/Graphics/SVG/1.1/DTD/svg11.dtd">
<!-- Creator: CorelDRAW X8 -->
<svg xmlns="http://www.w3.org/2000/svg" xml:space="preserve" width="24px" height="24px" version="1.1" style="shape-rendering:geometricPrecision; text-rendering:geometricPrecision; image-rendering:optimizeQuality; fill-rule:evenodd; clip-rule:evenodd"
viewBox="0 0 24 24"
 xmlns:xlink="http://www.w3.org/1999/xlink">
 <defs>
  <style type="text/css">
   <![CDATA[
    .fil0 {fill:#391E1D}
   ]]>
  </style>
 </defs>
 <g id="Layer_x0020_1">
  <metadata id="CorelCorpID_0Corel-Layer"/>
  <path class="fil0" d="M21 0c2,0 3,1 3,3l0 18c0,2 -1,3 -3,3l-18 0c-2,0 -3,-1 -3,-3l0 -18c0,-2 1,-3 3,-3l18 0zm-9 4c-2,0 -3,0 -3,0 -1,0 -2,0 -2,0 -1,0 -1,1 -2,1 0,1 -1,1 -1,2 0,0 0,1 0,2 0,0 0,1 0,3 0,2 0,3 0,3 0,1 0,2 0,2 0,1 1,1 1,2 1,0 1,1 2,1 0,0 1,0 2,0 0,0 1,0 3,0 2,0 3,0 3,0 1,0 2,0 2,0 1,0 1,-1 2,-1 0,-1 1,-1 1,-2 0,0 0,-1 0,-2 0,0 0,-1 0,-3 0,-2 0,-3 0,-3 0,-1 0,-2 0,-2 0,-1 -1,-1 -1,-2 -1,0 -1,-1 -2,-1 0,0 -1,0 -2,0 0,0 -1,0 -3,0zm0 1c2,0 2,0 3,0 1,0 2,0 2,1 0,0 0,0 1,0 0,1 0,1 0,1 1,0 1,1 1,2 0,1 0,1 0,3 0,2 0,2 0,3 0,1 0,2 -1,2 0,0 0,0 0,1 -1,0 -1,0 -1,0 0,1 -1,1 -2,1 -1,0 -1,0 -3,0 -2,0 -2,0 -3,0 -1,0 -2,0 -2,-1 0,0 0,0 -1,0 0,-1 0,-1 0,-1 -1,0 -1,-1 -1,-2 0,-1 0,-1 0,-3 0,-2 0,-2 0,-3 0,-1 0,-2 1,-2 0,0 0,0 0,-1 1,0 1,0 1,0 0,-1 1,-1 2,-1 1,0 1,0 3,0zm0 3c-2,0 -4,2 -4,4 0,2 2,4 4,4 2,0 4,-2 4,-4 0,-2 -2,-4 -4,-4zm0 7c-2,0 -3,-1 -3,-3 0,-2 1,-3 3,-3 2,0 3,1 3,3 0,2 -1,3 -3,3zm5 -7c0,0 0,1 -1,1 0,0 -1,-1 -1,-1 0,-1 1,-1 1,-1 1,0 1,0 1,1z"/>
 </g>
</svg>
