<?xml version="1.0" encoding="UTF-8"?>
<!DOCTYPE svg PUBLIC "-//W3C//DTD SVG 1.1//EN" "http://www.w3.org/Graphics/SVG/1.1/DTD/svg11.dtd">
<!-- Creator: CorelDRAW X8 -->
<svg xmlns="http://www.w3.org/2000/svg" xml:space="preserve" width="100px" height="26px" version="1.1" style="shape-rendering:geometricPrecision; text-rendering:geometricPrecision; image-rendering:optimizeQuality; fill-rule:evenodd; clip-rule:evenodd"
viewBox="0 0 100 26"
 xmlns:xlink="http://www.w3.org/1999/xlink">
 <defs>
  <style type="text/css">
   <![CDATA[
    .fil0 {fill:#472417}
   ]]>
  </style>
 </defs>
 <g id="Layer_x0020_1">
  <metadata id="CorelCorpID_0Corel-Layer"/>
  <g id="_2302800212288">
   <polygon class="fil0" points="37,14 37,16 34,16 34,14 "/>
   <polygon class="fil0" points="49,19 46,12 43,19 38,7 41,7 43,14 45,9 44,7 46,7 49,13 51,7 53,7 "/>
   <path class="fil0" d="M19 15c0,-1 1,-1 1,-2 1,0 1,-1 1,-2 0,-1 -1,-2 -1,-3 -1,0 -2,-1 -4,-1l-3 0 0 2 3 0 0 0 1 0c0,0 1,1 1,1 0,0 0,1 0,1 0,1 0,1 0,1 0,1 -1,1 -1,1l-1 0 0 2 3 4 3 0 -3 -4 0 0z"/>
   <polygon class="fil0" points="30,7 30,9 25,9 25,12 30,12 30,14 25,14 25,17 31,17 31,19 22,19 22,7 30,7 "/>
   <polygon class="fil0" points="15,13 15,15 13,15 13,13 "/>
   <path class="fil0" d="M61 18l-2 -3 -2 0 0 3 -2 0 0 -11 3 0c2,0 3,0 4,1 0,1 1,2 1,3 0,1 0,1 -1,2 0,0 0,1 -1,1l3 4 -3 0zm-4 -5l2 0c0,0 1,0 1,-1 0,0 0,-1 0,-1 0,0 0,-1 0,-1 0,-1 -1,-1 -1,-1l-2 0 0 4 0 0z"/>
   <polygon class="fil0" points="68,7 68,18 65,18 65,7 "/>
   <polygon class="fil0" points="77,7 77,9 75,9 75,18 72,18 72,9 70,9 70,7 77,7 "/>
   <polygon class="fil0" points="87,7 87,9 82,9 82,12 87,12 87,14 82,14 82,16 87,16 87,18 80,18 80,7 87,7 "/>
   <path class="fil0" d="M87 26l-74 0c-7,0 -13,-6 -13,-12l0 -1c0,-7 6,-13 13,-13l74 0c7,0 13,6 13,13l0 1c0,6 -6,12 -13,12zm-74 -25c-7,0 -12,5 -12,12l0 1c0,6 5,11 12,11l74 0c7,0 12,-5 12,-11l0 -1c0,-7 -5,-12 -12,-12l-74 0z"/>
  </g>
 </g>
</svg>
