<?xml version="1.0" encoding="UTF-8"?>
<!DOCTYPE svg PUBLIC "-//W3C//DTD SVG 1.1//EN" "http://www.w3.org/Graphics/SVG/1.1/DTD/svg11.dtd">
<!-- Creator: CorelDRAW X8 -->
<svg xmlns="http://www.w3.org/2000/svg" xml:space="preserve" width="24px" height="24px" version="1.1" style="shape-rendering:geometricPrecision; text-rendering:geometricPrecision; image-rendering:optimizeQuality; fill-rule:evenodd; clip-rule:evenodd"
viewBox="0 0 24 24"
 xmlns:xlink="http://www.w3.org/1999/xlink"
 enable-background="new 0 0 24 24">
 <defs>
  <style type="text/css">
   <![CDATA[
    .fil0 {fill:#391E1D}
   ]]>
  </style>
 </defs>
 <g id="Layer_x0020_1">
  <metadata id="CorelCorpID_0Corel-Layer"/>
  <g id="_1664487672688">
   <path class="fil0" d="M20 3l-16 0c-2,0 -4,2 -4,4l0 10c0,2 2,4 4,4l16 0c2,0 4,-2 4,-4l0 -10c0,-2 -2,-4 -4,-4zm2 6l-8 5c-1,0 -1,1 -2,1 -1,0 -1,-1 -2,-1l-8 -5c0,0 0,-1 0,-2 1,0 1,0 2,0l8 6c0,0 0,0 1,0l8 -6c0,0 1,0 1,1 0,0 0,1 0,1l0 0z"/>
  </g>
 </g>
</svg>
