<?xml version="1.0" encoding="UTF-8"?>
<!DOCTYPE svg PUBLIC "-//W3C//DTD SVG 1.1//EN" "http://www.w3.org/Graphics/SVG/1.1/DTD/svg11.dtd">
<!-- Creator: CorelDRAW X8 -->
<svg xmlns="http://www.w3.org/2000/svg" xml:space="preserve" width="24px" height="24px" version="1.1" style="shape-rendering:geometricPrecision; text-rendering:geometricPrecision; image-rendering:optimizeQuality; fill-rule:evenodd; clip-rule:evenodd"
viewBox="0 0 24 24"
 xmlns:xlink="http://www.w3.org/1999/xlink">
 <defs>
  <style type="text/css">
   <![CDATA[
    .fil0 {fill:#391E1D}
   ]]>
  </style>
 </defs>
 <g id="Layer_x0020_1">
  <metadata id="CorelCorpID_0Corel-Layer"/>
  <path class="fil0" d="M23 16l-6 -2c0,0 0,0 -1,0 0,0 0,0 -1,0l-3 2c-1,-1 -3,-2 -4,-4l2 -3c0,-1 0,-1 0,-1 0,-1 0,-1 0,-1l-2 -6c0,-1 -1,-1 -2,-1 0,0 0,0 0,0 -3,0 -6,3 -6,7 0,9 8,17 17,17 4,0 7,-3 7,-6 0,0 0,0 0,0 0,-1 0,-2 -1,-2l0 0z"/>
 </g>
</svg>
